<svg width="40" height="40" viewBox="0 0 40 40" fill="none" xmlns="http://www.w3.org/2000/svg">
<path fill-rule="evenodd" clip-rule="evenodd" d="M20 40C31.0457 40 40 31.0457 40 20C40 8.9543 31.0457 0 20 0C8.9543 0 0 8.9543 0 20C0 31.0457 8.9543 40 20 40ZM31.4936 13.5327C32.2174 12.81 32.2183 11.6375 31.4956 10.9138C30.773 10.19 29.6005 10.1891 28.8767 10.9118L16.2751 23.4942L11.1233 18.3502C10.3995 17.6275 9.227 17.6284 8.50436 18.3522C7.78172 19.0759 7.78261 20.2484 8.50636 20.9711L14.705 27.1603C15.5725 28.0265 16.9777 28.0265 17.8453 27.1603L31.4936 13.5327Z" fill="#4AFEBF"/>
</svg>
