<svg width="40" height="40" viewBox="0 0 40 40" fill="none" xmlns="http://www.w3.org/2000/svg">
<path fill-rule="evenodd" clip-rule="evenodd" d="M20 40C31.0457 40 40 31.0457 40 20C40 8.9543 31.0457 0 20 0C8.9543 0 0 8.9543 0 20C0 31.0457 8.9543 40 20 40ZM12.9498 12.7646C13.673 12.0414 14.8455 12.0414 15.5687 12.7646L20.1518 17.3477L24.604 12.8956C25.3272 12.1724 26.4997 12.1724 27.2229 12.8956C27.9461 13.6188 27.9461 14.7913 27.2229 15.5145L22.7707 19.9666L27.2229 24.4188C27.9461 25.142 27.9461 26.3145 27.2229 27.0377C26.4997 27.7609 25.3272 27.7609 24.604 27.0377L20.1518 22.5855L15.5687 27.1686C14.8455 27.8918 13.673 27.8918 12.9498 27.1686C12.2266 26.4454 12.2266 25.2729 12.9498 24.5497L17.5329 19.9666L12.9498 15.3835C12.2266 14.6603 12.2266 13.4878 12.9498 12.7646Z" fill="#D84747"/>
</svg>
