<svg width="31" height="32" viewBox="0 0 31 32" fill="none" xmlns="http://www.w3.org/2000/svg">
<path fill-rule="evenodd" clip-rule="evenodd" d="M15.2779 31.0216C23.6677 31.0216 30.469 24.2961 30.469 15.9999C30.469 7.70369 23.6677 0.978271 15.2779 0.978271C6.88817 0.978271 0.0869141 7.70369 0.0869141 15.9999C0.0869141 24.2961 6.88817 31.0216 15.2779 31.0216ZM21.3339 14.4663C21.7352 14.0601 22.2804 13.7994 22.9 13.7994C25.1862 13.801 25.9456 16.9079 23.8833 17.9819C23.9741 18.3138 24.0108 18.6832 24.0108 19.0355C24.0108 22.5511 20.1078 25.3997 15.2951 25.3997C10.5028 25.3997 6.59977 22.5511 6.59977 19.0355C6.59977 18.6832 6.63328 18.3301 6.70766 17.9991C4.6029 16.9291 5.35571 13.7994 7.65419 13.7994C8.27377 13.7994 8.84022 14.0601 9.24155 14.4835C10.7218 13.4463 12.6901 12.7801 14.8774 12.6877L16.1345 6.91536C16.1885 6.70938 16.3871 6.56225 16.5898 6.61702L20.6171 7.52268C20.8909 6.98975 21.4402 6.59985 22.0769 6.59985C22.9907 6.59985 23.7174 7.3592 23.7174 8.26568C23.7174 9.17216 22.9858 9.93151 22.0761 9.93151C21.1835 9.93151 20.456 9.19177 20.456 8.28611L16.8097 7.45565L15.6645 12.6918C17.869 12.7629 19.8585 13.4299 21.3339 14.4663ZM11.6888 16.5556C10.775 16.5556 10.0475 17.2986 10.0475 18.2214C10.0475 19.1279 10.779 19.8709 11.6888 19.8668C12.5822 19.8668 13.3097 19.1279 13.3097 18.2214C13.3097 17.2937 12.5814 16.5556 11.6888 16.5556ZM11.6504 22.1432C13.156 23.6701 17.4023 23.6701 18.9071 22.1432C19.0722 21.9969 19.0722 21.737 18.903 21.5686C18.7583 21.4215 18.5017 21.4215 18.357 21.5686C17.1579 22.7849 13.3456 22.7644 12.1964 21.5686C12.0517 21.4215 11.7951 21.4215 11.6504 21.5686C11.4845 21.7361 11.4845 21.9961 11.6504 22.1432ZM17.2535 18.2263C17.2535 19.132 17.981 19.8701 18.8736 19.8701C19.7833 19.8701 20.5108 19.1279 20.5149 18.2263C20.5149 17.2986 19.7833 16.5605 18.8736 16.5605C17.981 16.5605 17.2535 17.3035 17.2535 18.2263Z" fill="#4AFEBF"/>
</svg>
