<svg width="31" height="32" viewBox="0 0 31 32" fill="none" xmlns="http://www.w3.org/2000/svg">
<path fill-rule="evenodd" clip-rule="evenodd" d="M15.4242 31.0216C23.814 31.0216 30.6152 24.2961 30.6152 15.9999C30.6152 7.70369 23.814 0.978271 15.4242 0.978271C7.03441 0.978271 0.233154 7.70369 0.233154 15.9999C0.233154 24.2961 7.03441 31.0216 15.4242 31.0216ZM11.6674 23.2943C12.0923 23.5032 12.4759 23.2943 12.4759 22.7882C12.4661 11.5593 12.5136 11.3864 12.4573 11.3403C12.454 11.3376 12.4504 11.3353 12.4464 11.3314L7.40705 8.84126C6.83934 8.56166 6.58826 8.74879 6.58826 9.16235V20.2493C6.58826 20.3986 6.63685 20.55 6.73184 20.7022C6.82683 20.8544 6.94316 20.9629 7.08159 21.0277L11.6674 23.2943ZM18.3731 20.7845L13.1069 12.3617V18.1975L18.3731 20.7845ZM24.26 22.7882V12.5371L18.9349 21.0662L23.2836 23.2062C23.4346 23.2906 23.5892 23.3329 23.7468 23.3329C23.9043 23.3329 24.0295 23.2826 24.1215 23.1821C24.2143 23.0817 24.26 22.9506 24.26 22.7882ZM21.7013 15.4496C23.3874 12.7498 24.2305 11.3896 24.2305 11.37C24.2305 11.3438 24.2173 11.3241 24.1915 11.3117L18.8561 8.68544C18.6168 8.56749 18.2604 8.617 18.0867 8.89951L14.8918 14.0247L18.7376 20.1911C19.0269 19.7309 20.0151 18.1494 21.7013 15.4496Z" fill="#4AFEBF"/>
</svg>
