<svg width="31" height="31" viewBox="0 0 31 31" fill="none" xmlns="http://www.w3.org/2000/svg">
<path fill-rule="evenodd" clip-rule="evenodd" d="M30.5427 15.0216C30.5427 23.3179 23.7415 30.0433 15.3517 30.0433C6.9619 30.0433 0.160645 23.3179 0.160645 15.0216C0.160645 6.72542 6.9619 0 15.3517 0C23.7415 0 30.5427 6.72542 30.5427 15.0216ZM7.3981 19.5499L10.4958 20.6932L11.6948 24.5061C11.7715 24.7503 12.0735 24.8406 12.2739 24.6786L14.0007 23.2866C14.1816 23.1408 14.4395 23.1335 14.6286 23.2693L17.743 25.5052C17.9574 25.6593 18.2612 25.5431 18.315 25.2869L20.5964 14.4351C20.6551 14.1552 20.377 13.9218 20.1075 14.0248L7.39447 18.8745C7.08074 18.9941 7.08347 19.4333 7.3981 19.5499ZM11.5016 20.0846L17.5556 16.3975C17.6644 16.3314 17.7764 16.4769 17.6829 16.5626L12.6866 21.1551C12.511 21.3168 12.3977 21.5331 12.3656 21.7679L12.1954 23.0152C12.1728 23.1817 11.9363 23.1982 11.8898 23.037L11.2352 20.7627C11.1603 20.5033 11.2695 20.2262 11.5016 20.0846ZM11.7537 10.96C12.4937 10.96 13.1037 10.65 13.6637 10.02L14.4937 10.94C13.8437 11.69 12.7337 12.13 11.7537 12.13C9.73365 12.13 8.16365 10.54 8.16365 8.5C8.16365 6.46 9.73365 4.87 11.7537 4.87C12.7437 4.87 13.7837 5.29 14.5037 6.05L13.6437 7C13.0837 6.35 12.4937 6.04 11.7537 6.04C10.3537 6.04 9.45365 7.19 9.45365 8.5C9.45365 9.81 10.3537 10.96 11.7537 10.96ZM16.934 7.17V12H15.654V5H16.884L20.444 9.82H20.454V5H21.734V12H20.494L16.944 7.17H16.934Z" fill="#4AFEBF"/>
</svg>
