<svg width="31" height="32" viewBox="0 0 31 32" fill="none" xmlns="http://www.w3.org/2000/svg">
<path d="M15.0652 0.978271C6.77018 0.978271 0.043457 7.705 0.043457 16C0.043457 24.295 6.77018 31.0217 15.0652 31.0217C23.3602 31.0217 30.0869 24.295 30.0869 16C30.0869 7.705 23.3602 0.978271 15.0652 0.978271ZM10.7 23.6869H7.04157V12.6803H10.7V23.6869ZM8.87092 11.1774H8.84708C7.61942 11.1774 6.82542 10.3322 6.82542 9.27603C6.82542 8.19597 7.64371 7.37424 8.89522 7.37424C10.1467 7.37424 10.9169 8.19597 10.9407 9.27603C10.9407 10.3322 10.1467 11.1774 8.87092 11.1774ZM23.8917 23.6869H20.2337V17.7986C20.2337 16.3188 19.704 15.3096 18.3803 15.3096C17.3697 15.3096 16.7678 15.9904 16.5033 16.6475C16.4065 16.8827 16.3829 17.2114 16.3829 17.5403V23.6869H12.7247C12.7247 23.6869 12.7726 13.7129 12.7247 12.6803H16.3829V14.2387C16.8691 13.4887 17.739 12.422 19.6799 12.422C22.0869 12.422 23.8917 13.9951 23.8917 17.3757V23.6869Z" fill="#4AFEBF"/>
</svg>
