<svg width="31" height="32" viewBox="0 0 31 32" fill="none" xmlns="http://www.w3.org/2000/svg">
<path fill-rule="evenodd" clip-rule="evenodd" d="M0 16C0 7.705 6.72673 0.978271 15.0217 0.978271C23.3167 0.978271 30.0435 7.705 30.0435 16C30.0435 24.295 23.3167 31.0217 15.0217 31.0217C6.72673 31.0217 0 24.295 0 16ZM24.0216 20.5309C24.408 19.0618 24.408 16.0154 24.408 16.0154C24.408 16.0154 24.4236 12.9538 24.0216 11.4847C23.805 10.6806 23.171 10.0464 22.3669 9.83003C20.8978 9.42799 15.0217 9.42799 15.0217 9.42799C15.0217 9.42799 9.14561 9.42799 7.67659 9.81468C6.88786 10.0311 6.23827 10.6806 6.02189 11.4847C5.63521 12.9538 5.63521 16 5.63521 16C5.63521 16 5.63521 19.0618 6.02189 20.5153C6.2385 21.3194 6.87251 21.9536 7.67659 22.17C9.16097 22.572 15.0217 22.572 15.0217 22.572C15.0217 22.572 20.8978 22.572 22.3669 22.1853C23.171 21.9689 23.805 21.3349 24.0216 20.5309ZM18.037 16.0001L13.1506 18.8144V13.1858L18.037 16.0001Z" fill="#4AFEBF"/>
</svg>
