<svg width="31" height="32" viewBox="0 0 31 32" fill="none" xmlns="http://www.w3.org/2000/svg">
<path fill-rule="evenodd" clip-rule="evenodd" d="M15.8063 31.0216C24.196 31.0216 30.9973 24.2961 30.9973 15.9999C30.9973 7.70369 24.196 0.978271 15.8063 0.978271C7.41649 0.978271 0.615234 7.70369 0.615234 15.9999C0.615234 24.2961 7.41649 31.0216 15.8063 31.0216ZM18.5407 9.38175L18.5845 9.36597H18.5566L18.5407 9.38175ZM13.1356 9.36466C13.1356 9.36466 10.877 9.28053 8.44034 11.0341C8.44034 11.0341 6.00366 15.1669 6.00366 20.262C6.00366 20.262 7.35427 22.5493 11.0578 22.636C11.0578 22.636 11.5989 21.9354 12.1452 21.3189C10.0648 20.7037 9.25523 19.4733 9.25523 19.4733L9.95047 19.823C10.0847 19.8768 10.2194 19.9316 10.3551 19.9868L10.3558 19.9871L10.3559 19.9871C12.2763 20.7682 14.39 21.6279 17.9704 21.0534L18.0265 21.0411C18.8174 20.8678 19.6096 20.6942 20.4004 20.3501C20.5456 20.2776 20.7 20.2051 20.8625 20.1288L20.8626 20.1288C21.2894 19.9285 21.7717 19.7021 22.2868 19.3813C22.2868 19.3813 21.4759 20.6117 19.309 21.2269C19.7557 21.8394 20.3831 22.5414 20.3831 22.5414C23.4188 22.4768 24.9336 20.9296 25.4265 20.4262C25.5351 20.3152 25.5941 20.255 25.6088 20.2725C25.6088 15.1853 23.1575 11.0446 23.1575 11.0446C20.9667 9.46062 18.9195 9.38963 18.5327 9.38832L18.2854 9.62888C21.0837 10.4176 22.4383 11.6493 22.4383 11.6493C18.3785 9.67226 13.993 9.55921 9.97706 11.1209C9.34562 11.3877 8.98404 11.5625 8.98404 11.5625C8.98404 11.5625 10.336 10.2454 13.3177 9.54212L13.1356 9.36466ZM20.5387 16.9221C20.5387 17.8949 19.769 18.6836 18.8239 18.6836C17.8787 18.6836 17.109 17.8949 17.109 16.93C17.1117 15.9573 17.8827 15.1712 18.8239 15.1712V15.1672C19.773 15.1672 20.5387 15.9559 20.5387 16.9221ZM12.6849 18.6836C13.6301 18.6836 14.3998 17.8949 14.3998 16.9221C14.3998 15.9559 13.6354 15.1672 12.6903 15.1672L12.6849 15.1712C11.7398 15.1712 10.9701 15.9573 10.9701 16.93C10.9701 17.8949 11.7398 18.6836 12.6849 18.6836Z" fill="#4AFEBF"/>
</svg>
