<svg width="32" height="32" viewBox="0 0 32 32" fill="none" xmlns="http://www.w3.org/2000/svg">
<path fill-rule="evenodd" clip-rule="evenodd" d="M16.0421 31.0216C24.4319 31.0216 31.2331 24.2961 31.2331 15.9999C31.2331 7.70369 24.4319 0.978271 16.0421 0.978271C7.65233 0.978271 0.851074 7.70369 0.851074 15.9999C0.851074 24.2961 7.65233 31.0216 16.0421 31.0216ZM24.4443 10.4794C24.7543 10.3907 25.0576 10.2815 25.3527 10.1521C25.476 10.098 25.6205 10.131 25.7072 10.2331C25.794 10.3352 25.8022 10.4816 25.7272 10.5925C25.2339 11.3222 24.6276 11.9572 23.9234 12.4818C23.9268 12.5919 23.9285 12.7024 23.9285 12.8118C23.9285 15.4305 22.9048 18.0807 21.1199 20.083C19.6886 21.6888 17.1206 23.603 13.0156 23.603C10.9275 23.603 8.89428 23.0137 7.13588 21.8988C7.01707 21.8235 6.96666 21.677 7.01422 21.5456C7.06179 21.4143 7.19532 21.3328 7.33497 21.3492C7.61609 21.3821 7.90333 21.3987 8.18894 21.3987C9.55771 21.3987 10.8616 21.0288 12.0018 20.3226C10.6271 20.0168 9.48991 19.0139 9.04823 17.6503C9.01558 17.5496 9.03903 17.4394 9.10991 17.3603C9.18068 17.2812 9.28858 17.2448 9.39352 17.2646C9.4953 17.2839 9.59775 17.2985 9.70027 17.3087C8.50702 16.605 7.72654 15.314 7.72654 13.88C7.72654 13.8621 7.72654 13.8444 7.72696 13.8268C7.72939 13.7219 7.78713 13.6259 7.87922 13.5737C7.97125 13.5215 8.0843 13.5207 8.17694 13.5717C8.34949 13.6664 8.53028 13.7462 8.71658 13.81C8.10387 13.0978 7.75702 12.1863 7.75702 11.2256C7.75702 10.5203 7.94586 9.82705 8.30308 9.22093C8.35313 9.13604 8.44213 9.0808 8.54119 9.07313C8.64018 9.06528 8.73688 9.10632 8.79965 9.18247C10.5609 11.3188 13.1257 12.6597 15.8845 12.8992C15.8626 12.7294 15.8515 12.5573 15.8515 12.3841C15.8515 10.1857 17.6602 8.39722 19.8835 8.39722C20.9367 8.39722 21.9555 8.8097 22.7056 9.53451C23.4503 9.37227 24.1605 9.09482 24.8188 8.70875C24.927 8.64531 25.0637 8.65459 25.162 8.73212C25.2605 8.80958 25.3001 8.93923 25.2618 9.05767C25.0911 9.58609 24.8113 10.069 24.4443 10.4794Z" fill="#4AFEBF"/>
</svg>
